<svg width="192" height="192" viewBox="0 0 192 192" fill="none" xmlns="http://www.w3.org/2000/svg">
<rect width="192" height="192" fill="black"/>
<path d="M87.2453 127.232L87.1645 135.241L132.417 135.698L132.873 90.4452L124.864 90.3645L124.488 127.607L87.2453 127.232Z" fill="white"/>
<path d="M98.4889 29.5111V101.689H26.3111L26.3111 29.5111L98.4889 29.5111ZM98.4889 19.2L26.3111 19.2C20.64 19.2 16 23.84 16 29.5111L16 101.689C16 107.36 20.64 112 26.3111 112H98.4889C104.16 112 108.8 107.36 108.8 101.689V29.5111C108.8 23.84 104.16 19.2 98.4889 19.2ZM73.4329 64.8782L57.9662 84.8302L46.9333 71.4773L31.4667 91.3778H93.3333L73.4329 64.8782Z" fill="white"/>
<path d="M175.289 144.711V172.089H147.911V144.711H175.289ZM175.289 140.8H147.911C145.76 140.8 144 142.56 144 144.711V172.089C144 174.24 145.76 176 147.911 176H175.289C177.44 176 179.2 174.24 179.2 172.089V144.711C179.2 142.56 177.44 140.8 175.289 140.8ZM165.785 158.126L159.918 165.694L155.733 160.629L149.867 168.178H173.333L165.785 158.126Z" fill="white"/>
</svg>
